<?xml version="1.0" encoding="UTF-8"?>
<svg id="Layer_1" xmlns="http://www.w3.org/2000/svg" version="1.1" viewBox="0 0 400 400">
  <!-- Generator: Adobe Illustrator 29.8.2, SVG Export Plug-In . SVG Version: 2.1.1 Build 3)  -->
  <polygon points="255.84 166.16 256.06 229.56 254.4 232.9 199.5 263.92 143.51 231.99 143.16 166.16 199.5 134.37 255.84 166.16"/>
  <polygon points="142 258.5 144.04 257.43 261 325.01 199.41 361.01 142 329 142 258.5"/>
  <polygon points="59 118.5 116.32 85.15 178 121.99 59 189 59 118.5"/>
  <polygon points="277 82 338.84 117.16 339.07 118.46 338.84 184.84 277 219 277 82"/>
  <polygon points="256 69 256 142 137.99 73.49 199.51 37.03 256 69"/>
  <polygon points="339 209 339 280.5 282.5 312.92 221.02 277.5 339 209"/>
  <polygon points="121 316 59.16 280.84 58.93 215.46 59.16 214.16 121 179 121 316"/>
</svg>